{
  "accessors": [
    {
      "bufferView": 2,
      "componentType": 5126,
      "count": 815,
      "max": [
        1.1541500091552734,
        -1.6635960340499878,
        0.9854609966278076
      ],
      "min": [
        -3.8604249954223633,
        -8.68875789642334,
        -1.1897000074386597
      ],
      "type": "VEC3"
    },
    {
      "bufferView": 2,
      "byteOffset": 9780,
      "componentType": 5126,
      "count": 815,
      "max": [
        0.9972431659698486,
        0.9881020188331604,
        1.0
      ],
      "min": [
        -0.816890299320221,
        -0.9231953024864197,
        -1.0
      ],
      "type": "VEC3"
    },
    {
      "bufferView": 3,
      "componentType": 5126,
      "count": 815,
      "max": [
        0.9291062355041504,
        0.9336827993392944,
        1.0,
        1.0
      ],
      "min": [
        -1.0,
        -0.8168594837188721,
        -1.0,
        -1.0
      ],
      "type": "VEC4"
    },
    {
      "bufferView": 1,
      "componentType": 5126,
      "count": 815,
      "max": [
        0.8590459823608398,
        0.9496639966964722
      ],
      "min": [
        0.004999999888241291,
        0.004999999888241291
      ],
      "type": "VEC2"
    },
    {
      "bufferView": 0,
      "componentType": 5125,
      "count": 2859,
      "type": "SCALAR"
    },
    {
      "bufferView": 2,
      "byteOffset": 19560,
      "componentType": 5126,
      "count": 22100,
      "max": [
        3.1120829582214355,
        -2.5631260871887207,
        3.788883924484253
      ],
      "min": [
        -4.824335098266602,
        -10.605224609375,
        -1.2406049966812134
      ],
      "type": "VEC3"
    },
    {
      "bufferView": 2,
      "byteOffset": 284760,
      "componentType": 5126,
      "count": 22100,
      "max": [
        0.9999920129776001,
        0.9999978542327881,
        1.0
      ],
      "min": [
        -0.9999920129776001,
        -0.9999978542327881,
        -1.0
      ],
      "type": "VEC3"
    },
    {
      "bufferView": 3,
      "byteOffset": 13040,
      "componentType": 5126,
      "count": 22100,
      "max": [
        0.999997615814209,
        0.9999920129776001,
        1.0,
        1.0
      ],
      "min": [
        -0.9999976754188538,
        -0.9999920725822449,
        -1.0,
        -1.0
      ],
      "type": "VEC4"
    },
    {
      "bufferView": 1,
      "byteOffset": 6520,
      "componentType": 5126,
      "count": 22100,
      "max": [
        0.956974983215332,
        0.9950000047683716
      ],
      "min": [
        0.004999999888241291,
        0.004999999888241291
      ],
      "type": "VEC2"
    },
    {
      "bufferView": 0,
      "byteOffset": 11436,
      "componentType": 5125,
      "count": 69792,
      "type": "SCALAR"
    },
    {
      "bufferView": 2,
      "byteOffset": 549960,
      "componentType": 5126,
      "count": 16274,
      "max": [
        1.0129480361938477,
        5.759749889373779,
        4.499713897705078
      ],
      "min": [
        -3.985330104827881,
        -1.3791040182113647,
        -1.213718056678772
      ],
      "type": "VEC3"
    },
    {
      "bufferView": 2,
      "byteOffset": 745248,
      "componentType": 5126,
      "count": 16274,
      "max": [
        1.0,
        1.0,
        1.0
      ],
      "min": [
        -1.0,
        -1.0,
        -1.0
      ],
      "type": "VEC3"
    },
    {
      "bufferView": 3,
      "byteOffset": 366640,
      "componentType": 5126,
      "count": 16274,
      "max": [
        1.0,
        1.0,
        1.0,
        1.0
      ],
      "min": [
        -1.0,
        -1.0,
        -1.0,
        -1.0
      ],
      "type": "VEC4"
    },
    {
      "bufferView": 1,
      "byteOffset": 183320,
      "componentType": 5126,
      "count": 16274,
      "max": [
        0.9943709969520569,
        0.9950000047683716
      ],
      "min": [
        0.004999999888241291,
        0.004999999888241291
      ],
      "type": "VEC2"
    },
    {
      "bufferView": 0,
      "byteOffset": 290604,
      "componentType": 5125,
      "count": 67677,
      "type": "SCALAR"
    },
    {
      "bufferView": 2,
      "byteOffset": 940536,
      "componentType": 5126,
      "count": 6726,
      "max": [
        4.667092800140381,
        5.6931610107421875,
        0.4798069894313812
      ],
      "min": [
        0.3875940144062042,
        -2.6672439575195313,
        -1.1902049779891968
      ],
      "type": "VEC3"
    },
    {
      "bufferView": 2,
      "byteOffset": 1021248,
      "componentType": 5126,
      "count": 6726,
      "max": [
        1.0,
        1.0,
        1.0
      ],
      "min": [
        -1.0,
        -1.0,
        -1.0
      ],
      "type": "VEC3"
    },
    {
      "bufferView": 3,
      "byteOffset": 627024,
      "componentType": 5126,
      "count": 6726,
      "max": [
        1.0,
        1.0,
        1.0,
        1.0
      ],
      "min": [
        -1.0,
        -1.0,
        -1.0,
        -1.0
      ],
      "type": "VEC4"
    },
    {
      "bufferView": 1,
      "byteOffset": 313512,
      "componentType": 5126,
      "count": 6726,
      "max": [
        0.9401649832725525,
        0.9052630066871643
      ],
      "min": [
        0.004999999888241291,
        0.004999999888241291
      ],
      "type": "VEC2"
    },
    {
      "bufferView": 0,
      "byteOffset": 561312,
      "componentType": 5125,
      "count": 20508,
      "type": "SCALAR"
    },
    {
      "bufferView": 2,
      "byteOffset": 1101960,
      "componentType": 5126,
      "count": 7276,
      "max": [
        4.397706031799316,
        5.302945137023926,
        2.6434121131896973
      ],
      "min": [
        0.5801900029182434,
        -2.2953739166259766,
        -0.9202629923820496
      ],
      "type": "VEC3"
    },
    {
      "bufferView": 2,
      "byteOffset": 1189272,
      "componentType": 5126,
      "count": 7276,
      "max": [
        1.0,
        1.0,
        1.0
      ],
      "min": [
        -1.0,
        -1.0,
        -1.0
      ],
      "type": "VEC3"
    },
    {
      "bufferView": 3,
      "byteOffset": 734640,
      "componentType": 5126,
      "count": 7276,
      "max": [
        1.0,
        1.0,
        1.0,
        1.0
      ],
      "min": [
        -1.0,
        -1.0,
        -1.0,
        -1.0
      ],
      "type": "VEC4"
    },
    {
      "bufferView": 1,
      "byteOffset": 367320,
      "componentType": 5126,
      "count": 7276,
      "max": [
        0.9885169863700867,
        0.9885169863700867
      ],
      "min": [
        0.004999999888241291,
        0.004999999888241291
      ],
      "type": "VEC2"
    },
    {
      "bufferView": 0,
      "byteOffset": 643344,
      "componentType": 5125,
      "count": 24786,
      "type": "SCALAR"
    },
    {
      "bufferView": 2,
      "byteOffset": 1276584,
      "componentType": 5126,
      "count": 3088,
      "max": [
        4.600153923034668,
        5.603017807006836,
        0.30154699087142944
      ],
      "min": [
        0.4419650137424469,
        -2.5794150829315186,
        -1.154176950454712
      ],
      "type": "VEC3"
    },
    {
      "bufferView": 2,
      "byteOffset": 1313640,
      "componentType": 5126,
      "count": 3088,
      "max": [
        1.0,
        1.0,
        1.0
      ],
      "min": [
        -1.0,
        -1.0,
        -1.0
      ],
      "type": "VEC3"
    },
    {
      "bufferView": 3,
      "byteOffset": 851056,
      "componentType": 5126,
      "count": 3088,
      "max": [
        0.9997285008430481,
        1.0,
        1.0,
        1.0
      ],
      "min": [
        -0.9977326989173889,
        -1.0,
        -1.0,
        -1.0
      ],
      "type": "VEC4"
    },
    {
      "bufferView": 1,
      "byteOffset": 425528,
      "componentType": 5126,
      "count": 3088,
      "max": [
        0.9868429899215698,
        0.9950000047683716
      ],
      "min": [
        0.004999999888241291,
        0.004999999888241291
      ],
      "type": "VEC2"
    },
    {
      "bufferView": 0,
      "byteOffset": 742488,
      "componentType": 5125,
      "count": 9792,
      "type": "SCALAR"
    },
    {
      "bufferView": 2,
      "byteOffset": 1350696,
      "componentType": 5126,
      "count": 43767,
      "max": [
        1.572590947151184,
        5.72774600982666,
        2.68403697013855
      ],
      "min": [
        0.35350099205970764,
        4.433612823486328,
        -1.154176950454712
      ],
      "type": "VEC3"
    },
    {
      "bufferView": 2,
      "byteOffset": 1875900,
      "componentType": 5126,
      "count": 43767,
      "max": [
        1.0,
        1.0,
        1.0
      ],
      "min": [
        -1.0,
        -1.0,
        -1.0
      ],
      "type": "VEC3"
    },
    {
      "bufferView": 3,
      "byteOffset": 900464,
      "componentType": 5126,
      "count": 43767,
      "max": [
        1.0,
        1.0,
        1.0,
        1.0
      ],
      "min": [
        -1.0,
        -1.0,
        -1.0,
        -1.0
      ],
      "type": "VEC4"
    },
    {
      "bufferView": 1,
      "byteOffset": 450232,
      "componentType": 5126,
      "count": 43767,
      "max": [
        0.9445949792861938,
        0.9451990127563477
      ],
      "min": [
        0.004999999888241291,
        0.004999999888241291
      ],
      "type": "VEC2"
    },
    {
      "bufferView": 0,
      "byteOffset": 781656,
      "componentType": 5125,
      "count": 131232,
      "type": "SCALAR"
    },
    {
      "bufferView": 2,
      "byteOffset": 2401104,
      "componentType": 5126,
      "count": 43767,
      "max": [
        4.7013840675354,
        -1.5297369956970215,
        2.68403697013855
      ],
      "min": [
        3.3368799686431885,
        -2.701741933822632,
        -1.154176950454712
      ],
      "type": "VEC3"
    },
    {
      "bufferView": 2,
      "byteOffset": 2926308,
      "componentType": 5126,
      "count": 43767,
      "max": [
        0.9998621940612793,
        0.9998039603233337,
        1.0
      ],
      "min": [
        -0.9998621940612793,
        -0.9998020529747009,
        -1.0
      ],
      "type": "VEC3"
    },
    {
      "bufferView": 3,
      "byteOffset": 1600736,
      "componentType": 5126,
      "count": 43767,
      "max": [
        0.9998555779457092,
        0.9999463558197021,
        1.0,
        1.0
      ],
      "min": [
        -0.9987852573394775,
        -0.9999464154243469,
        -1.0,
        -1.0
      ],
      "type": "VEC4"
    },
    {
      "bufferView": 1,
      "byteOffset": 800368,
      "componentType": 5126,
      "count": 43767,
      "max": [
        0.9445949792861938,
        0.9451990127563477
      ],
      "min": [
        0.004999999888241291,
        0.004999999888241291
      ],
      "type": "VEC2"
    },
    {
      "bufferView": 0,
      "byteOffset": 1306584,
      "componentType": 5125,
      "count": 131232,
      "type": "SCALAR"
    }
  ],
  "asset": {
    "extras": {
      "author": "Deshan (https://sketchfab.com/nufnuf1337)",
      "license": "CC-BY-4.0 (http://creativecommons.org/licenses/by/4.0/)",
      "source": "https://sketchfab.com/3d-models/tatooine-e1a2af1e90db4b5ebe817b259fe50bf0",
      "title": "Tatooine"
    },
    "generator": "Sketchfab-12.65.0",
    "version": "2.0"
  },
  "bufferViews": [
    {
      "buffer": 0,
      "byteLength": 1831512,
      "name": "floatBufferViews",
      "target": 34963
    },
    {
      "buffer": 0,
      "byteLength": 1150504,
      "byteOffset": 1831512,
      "byteStride": 8,
      "name": "floatBufferViews",
      "target": 34962
    },
    {
      "buffer": 0,
      "byteLength": 3451512,
      "byteOffset": 2982016,
      "byteStride": 12,
      "name": "floatBufferViews",
      "target": 34962
    },
    {
      "buffer": 0,
      "byteLength": 2301008,
      "byteOffset": 6433528,
      "byteStride": 16,
      "name": "floatBufferViews",
      "target": 34962
    }
  ],
  "buffers": [
    {
      "byteLength": 8734536,
      "uri": "scene.bin"
    }
  ],
  "images": [
    {
      "uri": "textures/Building_1_baseColor.jpeg"
    },
    {
      "uri": "textures/Building_1_metallicRoughness.png"
    },
    {
      "uri": "textures/Building_1_normal.png"
    },
    {
      "uri": "textures/Metal_Main_baseColor.jpeg"
    },
    {
      "uri": "textures/Metal_Main_normal.png"
    },
    {
      "uri": "textures/Metal_Main_2_metallicRoughness.png"
    },
    {
      "uri": "textures/None_baseColor.jpeg"
    },
    {
      "uri": "textures/None_metallicRoughness.png"
    },
    {
      "uri": "textures/None_normal.png"
    }
  ],
  "materials": [
    {
      "doubleSided": true,
      "name": "Building_1",
      "normalTexture": {
        "index": 2
      },
      "pbrMetallicRoughness": {
        "baseColorTexture": {
          "index": 0
        },
        "metallicRoughnessTexture": {
          "index": 1
        }
      }
    },
    {
      "doubleSided": true,
      "name": "Metal_Main",
      "normalTexture": {
        "index": 4
      },
      "pbrMetallicRoughness": {
        "baseColorTexture": {
          "index": 3
        },
        "metallicRoughnessTexture": {
          "index": 1
        }
      }
    },
    {
      "doubleSided": true,
      "name": "Metal_Main_2",
      "normalTexture": {
        "index": 4
      },
      "pbrMetallicRoughness": {
        "baseColorTexture": {
          "index": 3
        },
        "metallicRoughnessTexture": {
          "index": 5
        }
      }
    },
    {
      "doubleSided": true,
      "name": "Metal_Main_3",
      "normalTexture": {
        "index": 4
      },
      "pbrMetallicRoughness": {
        "baseColorTexture": {
          "index": 3
        },
        "metallicRoughnessTexture": {
          "index": 5
        }
      }
    },
    {
      "doubleSided": true,
      "name": "None",
      "normalTexture": {
        "index": 8
      },
      "pbrMetallicRoughness": {
        "baseColorTexture": {
          "index": 6
        },
        "metallicRoughnessTexture": {
          "index": 7
        }
      }
    },
    {
      "doubleSided": true,
      "name": "None.001",
      "normalTexture": {
        "index": 2
      },
      "pbrMetallicRoughness": {
        "baseColorTexture": {
          "index": 0
        },
        "metallicRoughnessTexture": {
          "index": 1
        }
      }
    },
    {
      "doubleSided": true,
      "name": "None.002",
      "normalTexture": {
        "index": 4
      },
      "pbrMetallicRoughness": {
        "baseColorTexture": {
          "index": 3
        },
        "metallicRoughnessTexture": {
          "index": 5
        }
      }
    }
  ],
  "meshes": [
    {
      "name": "Object_0",
      "primitives": [
        {
          "attributes": {
            "NORMAL": 1,
            "POSITION": 0,
            "TANGENT": 2,
            "TEXCOORD_0": 3
          },
          "indices": 4,
          "material": 0,
          "mode": 4
        }
      ]
    },
    {
      "name": "Object_1",
      "primitives": [
        {
          "attributes": {
            "NORMAL": 6,
            "POSITION": 5,
            "TANGENT": 7,
            "TEXCOORD_0": 8
          },
          "indices": 9,
          "material": 5,
          "mode": 4
        }
      ]
    },
    {
      "name": "Object_2",
      "primitives": [
        {
          "attributes": {
            "NORMAL": 11,
            "POSITION": 10,
            "TANGENT": 12,
            "TEXCOORD_0": 13
          },
          "indices": 14,
          "material": 4,
          "mode": 4
        }
      ]
    },
    {
      "name": "Object_3",
      "primitives": [
        {
          "attributes": {
            "NORMAL": 16,
            "POSITION": 15,
            "TANGENT": 17,
            "TEXCOORD_0": 18
          },
          "indices": 19,
          "material": 1,
          "mode": 4
        }
      ]
    },
    {
      "name": "Object_4",
      "primitives": [
        {
          "attributes": {
            "NORMAL": 21,
            "POSITION": 20,
            "TANGENT": 22,
            "TEXCOORD_0": 23
          },
          "indices": 24,
          "material": 3,
          "mode": 4
        }
      ]
    },
    {
      "name": "Object_5",
      "primitives": [
        {
          "attributes": {
            "NORMAL": 26,
            "POSITION": 25,
            "TANGENT": 27,
            "TEXCOORD_0": 28
          },
          "indices": 29,
          "material": 2,
          "mode": 4
        }
      ]
    },
    {
      "name": "Object_6",
      "primitives": [
        {
          "attributes": {
            "NORMAL": 31,
            "POSITION": 30,
            "TANGENT": 32,
            "TEXCOORD_0": 33
          },
          "indices": 34,
          "material": 6,
          "mode": 4
        }
      ]
    },
    {
      "name": "Object_7",
      "primitives": [
        {
          "attributes": {
            "NORMAL": 36,
            "POSITION": 35,
            "TANGENT": 37,
            "TEXCOORD_0": 38
          },
          "indices": 39,
          "material": 6,
          "mode": 4
        }
      ]
    }
  ],
  "nodes": [
    {
      "children": [
        1
      ],
      "matrix": [
        1.1113067865371704,
        0.0,
        0.0,
        0.0,
        0.0,
        2.467596763671521e-16,
        -1.1113067865371704,
        0.0,
        0.0,
        1.1113067865371704,
        2.467596763671521e-16,
        0.0,
        0.0,
        0.0,
        0.0,
        1.0
      ],
      "name": "Sketchfab_model"
    },
    {
      "children": [
        2,
        3,
        4,
        5,
        6,
        7,
        8,
        9
      ],
      "name": "Tatooine.obj.cleaner.materialmerger.gles"
    },
    {
      "mesh": 0,
      "name": "Object_2"
    },
    {
      "mesh": 1,
      "name": "Object_3"
    },
    {
      "mesh": 2,
      "name": "Object_4"
    },
    {
      "mesh": 3,
      "name": "Object_5"
    },
    {
      "mesh": 4,
      "name": "Object_6"
    },
    {
      "mesh": 5,
      "name": "Object_7"
    },
    {
      "mesh": 6,
      "name": "Object_8"
    },
    {
      "mesh": 7,
      "name": "Object_9"
    }
  ],
  "samplers": [
    {
      "magFilter": 9729,
      "minFilter": 9987,
      "wrapS": 10497,
      "wrapT": 10497
    }
  ],
  "scene": 0,
  "scenes": [
    {
      "name": "Sketchfab_Scene",
      "nodes": [
        0
      ]
    }
  ],
  "textures": [
    {
      "sampler": 0,
      "source": 0
    },
    {
      "sampler": 0,
      "source": 1
    },
    {
      "sampler": 0,
      "source": 2
    },
    {
      "sampler": 0,
      "source": 3
    },
    {
      "sampler": 0,
      "source": 4
    },
    {
      "sampler": 0,
      "source": 5
    },
    {
      "sampler": 0,
      "source": 6
    },
    {
      "sampler": 0,
      "source": 7
    },
    {
      "sampler": 0,
      "source": 8
    }
  ]
}
